<svg width="18" height="21" viewBox="0 0 18 21" fill="none" xmlns="http://www.w3.org/2000/svg">
<path d="M9 21C7.75 21 6.57933 20.7627 5.488 20.288C4.396 19.8127 3.446 19.1707 2.638 18.362C1.82933 17.554 1.18733 16.604 0.712 15.512C0.365894 14.7162 0.145971 13.8783 0.0522298 12.9982C-0.00626331 12.449 0.447715 12 1 12V12C1.55228 12 1.99193 12.4498 2.06254 12.9975C2.25885 14.5204 2.91734 15.8419 4.038 16.962C5.396 18.3207 7.05 19 9 19C10.95 19 12.604 18.3207 13.962 16.962C15.3207 15.604 16 13.95 16 12C16 10.05 15.3207 8.39567 13.962 7.037C12.604 5.679 10.95 5 9 5V5C8.94465 5 8.91693 5.06692 8.95607 5.10607L9.95163 6.10163C10.2005 6.35052 10.204 6.75295 9.95956 7.00617L9.71228 7.26228C9.32094 7.6676 8.67328 7.67328 8.27489 7.27489L6.98246 5.98246C5.88758 4.88758 5.88758 3.11242 6.98246 2.01754L8.27489 0.725109C8.67328 0.326716 9.32094 0.332398 9.71228 0.737718L9.95956 0.99383C10.204 1.24705 10.2005 1.64948 9.95163 1.89837L8.95607 2.89393C8.91693 2.93308 8.94465 3 9 3V3C10.25 3 11.421 3.23767 12.513 3.713C13.6043 4.18767 14.5543 4.829 15.363 5.637C16.171 6.44567 16.8127 7.39567 17.288 8.487C17.7627 9.579 18 10.75 18 12C18 13.25 17.7627 14.4207 17.288 15.512C16.8127 16.604 16.171 17.554 15.363 18.362C14.5543 19.1707 13.6043 19.8127 12.513 20.288C11.421 20.7627 10.25 21 9 21Z" fill="#808080"/>
</svg>
