<svg width="18" height="20" viewBox="0 0 18 20" fill="none" xmlns="http://www.w3.org/2000/svg">
<path d="M15 14.08V14.08C13.7167 14.08 12.2871 14.4117 11.1779 13.7662L6.52117 11.0557C6.15682 10.8437 6 10.4216 6 10V10V10C6 9.57836 6.15667 9.1562 6.52093 8.94384L11.0184 6.32188C12.1719 5.64944 13.6648 6 15 6V6C16.66 6 18 4.66 18 3C18 1.34 16.66 0 15 0C13.34 0 12 1.34 12 3V3C12 3.42164 11.8433 3.8438 11.4791 4.05616L6.98155 6.67812C5.82809 7.35056 4.33516 7 3 7V7C1.34 7 0 8.34 0 10C0 11.66 1.34 13 3 13V13C4.3349 13 5.82787 12.6503 6.98046 13.3238L11.5933 16.0189C11.9299 16.2156 12.08 16.6101 12.08 17V17C12.08 18.61 13.39 19.92 15 19.92C16.61 19.92 17.92 18.61 17.92 17C17.92 15.39 16.61 14.08 15 14.08Z" fill="#808080"/>
</svg>
